<svg width="101" height="101" viewBox="0 0 101 101" fill="none" xmlns="http://www.w3.org/2000/svg">
<path d="M32.9971 100.498C42.1051 100.498 49.4971 93.106 49.4971 83.998V67.498H32.9971C23.8891 67.498 16.4971 74.89 16.4971 83.998C16.4971 93.106 23.8891 100.498 32.9971 100.498Z" fill="#0ACF83"/>
<path d="M16.4971 50.498C16.4971 41.114 23.8891 33.498 32.9971 33.498H49.4971V67.498H32.9971C23.8891 67.498 16.4971 59.882 16.4971 50.498Z" fill="#A259FF"/>
<path d="M16.4971 16.998C16.4971 7.89005 23.8891 0.498047 32.9971 0.498047H49.4971V33.498H32.9971C23.8891 33.498 16.4971 26.106 16.4971 16.998Z" fill="#F24E1E"/>
<path d="M49.4971 0.498047H66.4971C75.8811 0.498047 83.4971 7.89005 83.4971 16.998C83.4971 26.106 75.8811 33.498 66.4971 33.498H49.4971V0.498047Z" fill="#FF7262"/>
<path d="M83.4971 50.498C83.4971 59.882 75.8811 67.498 66.4971 67.498C57.1131 67.498 49.4971 59.882 49.4971 50.498C49.4971 41.114 57.1131 33.498 66.4971 33.498C75.8811 33.498 83.4971 41.114 83.4971 50.498Z" fill="#1ABCFE"/>
</svg>
