<svg width="101" height="101" viewBox="0 0 101 101" fill="none" xmlns="http://www.w3.org/2000/svg">
<path d="M10.4782 1.32461C10.5826 1.02957 10.7948 0.78491 11.0722 0.639679C11.3496 0.494448 11.6717 0.459389 11.9739 0.541534L12.0626 0.56886L45.5705 13.2983C47.1546 13.0375 48.7278 12.9079 50.2751 12.9189C56.1231 12.9595 61.6457 14.2711 67.184 17.5404L99.4137 14.8742C99.6369 14.8645 99.8574 14.9266 100.043 15.0515C100.228 15.1764 100.368 15.3574 100.443 15.5679C100.517 15.7785 100.522 16.0073 100.456 16.2208C100.391 16.4343 100.259 16.6211 100.079 16.7538L99.9879 16.8135L79.8539 28.5323C80.1789 28.9051 80.5047 29.2857 80.8317 29.6745C90.0045 40.6044 95.5845 56.4193 98.2495 65.5636C99.0261 68.2283 99.1805 71.0356 98.7009 73.7694C98.2212 76.5032 97.1203 79.0905 95.4829 81.3324C89.4927 89.5242 76.7185 100.677 51.6561 100.499C24.295 100.31 10.1621 86.707 3.37186 78.3473C1.94988 76.5823 1.01446 74.4764 0.6584 72.2386C0.302339 70.0008 0.538016 67.7088 1.34205 65.5901L1.84989 64.2629C5.85717 53.8491 13.3217 35.7619 19.301 29.0363C22.9004 24.9921 27.0514 21.5003 31.4372 18.811L10.8575 2.69401C10.6615 2.53204 10.5201 2.31383 10.4523 2.06891C10.3845 1.82398 10.3933 1.56416 10.4782 1.32461Z" fill="#FF4C46"/>
<path d="M51.1964 72.1119C51.2068 72.0847 51.2223 72.06 51.2422 72.0389C51.262 72.0179 51.2858 72.001 51.3121 71.9893C51.3385 71.9775 51.3668 71.9712 51.3956 71.9706C51.4243 71.9699 51.4529 71.9751 51.4797 71.9856C53.6359 73.2372 56.0351 74.0006 58.5116 74.223C60.988 74.4454 63.4828 74.1215 65.8234 73.2738L66.0957 73.1728C66.1376 73.1526 66.1849 73.1471 66.2302 73.1573C66.2755 73.1674 66.3162 73.1926 66.3457 73.2288C66.3752 73.265 66.3919 73.3101 66.3931 73.357C66.3944 73.4039 66.38 73.4499 66.3524 73.4876L60.3615 80.1576C60.1783 80.36 59.9243 80.4821 59.6535 80.498C59.3826 80.514 59.1163 80.4224 58.9112 80.2429C56.6961 78.3183 52.9964 74.2972 51.2233 72.3226C51.2016 72.2926 51.1878 72.2576 51.183 72.2208C51.1782 72.1839 51.1827 72.1465 51.196 72.1119H51.1964ZM59.5133 37.9506C75.0052 27.0519 83.4036 36.5125 88.1159 47.0072C91.5199 54.5704 92.7256 68.7303 81.6743 70.9007C73.2092 72.5699 65.3871 63.8976 59.6018 55.8018C59.4324 55.5652 59.21 55.3725 58.9529 55.2393C58.6958 55.1061 58.4112 55.0363 58.1223 55.0354C57.8334 55.0346 57.5484 55.1028 57.2905 55.2344C57.0326 55.3661 56.8092 55.5575 56.6384 55.7931L56.4031 56.1245C52.4427 61.7387 42.9998 77.0025 29.0248 73.1396C15.54 69.4069 12.5773 54.069 18.1855 43.4666C26.4836 27.4784 38.6067 22.2694 59.5129 37.951L59.5133 37.9506ZM57.3114 59.8892C57.5672 59.6406 57.9064 59.499 58.2611 59.4926C58.6158 59.4862 58.9598 59.6156 59.2241 59.8548L59.3022 59.9314L66.7052 68.4612C66.7799 68.5477 66.8343 68.6501 66.8642 68.7609C66.8941 68.8717 66.8987 68.9879 66.8777 69.1007C66.8567 69.2135 66.8106 69.3201 66.7429 69.4123C66.6753 69.5045 66.5878 69.58 66.4871 69.633C64.2587 70.7818 61.8032 71.4087 59.3026 71.4672C56.0105 71.4396 52.6421 69.2302 51.2628 68.215L51.2066 68.1689C51.0685 68.0447 50.9806 67.8734 50.9597 67.6877C50.9388 67.5021 50.9864 67.3152 51.0934 67.1628L51.1445 67.0981L57.2279 59.9633L57.2381 59.9661C57.2616 59.9395 57.2861 59.9139 57.3114 59.8892Z" fill="white"/>
<path d="M77.4486 47.0901L77.535 47.2292C79.3474 50.0211 78.536 53.7427 75.7219 55.5414C72.9078 57.3401 69.1572 56.535 67.3444 53.7427C65.5814 51.0268 66.2993 47.4255 68.942 45.5743L69.0881 45.4752C71.7201 43.6063 75.3811 44.2077 77.265 46.819C77.3285 46.9079 77.3901 46.9981 77.4486 47.0901ZM39.5524 43.8865C36.3975 44.9533 34.8296 48.278 35.7697 51.374C36.8449 54.5044 40.1952 56.0606 43.3152 55.1281C46.4701 54.0609 48.0127 50.6942 47.0987 47.6402C47.107 47.6202 47.0868 47.5626 47.0481 47.4933C46.0776 44.48 42.978 42.8874 40.0278 43.7196C39.8919 43.6855 39.7221 43.7862 39.5524 43.8865Z" fill="#FF4C46"/>
</svg>
