<svg width="101" height="101" viewBox="0 0 101 101" fill="none" xmlns="http://www.w3.org/2000/svg">
<path d="M77.0635 0.498047H23.9358C10.9909 0.498047 0.49707 10.9917 0.49707 23.9363V77.0631C0.49707 90.0078 10.9909 100.501 23.9358 100.501H77.0635C90.0083 100.501 100.502 90.0078 100.502 77.0631V23.9363C100.502 10.9917 90.0083 0.498047 77.0635 0.498047Z" fill="#330000"/>
<path d="M49.0209 59.981H33.673L30.5373 69.7127C30.4549 70.0854 30.125 70.3339 29.7537 70.2923H21.997C21.5432 70.2923 21.4195 70.0439 21.5432 69.5469L34.8283 31.159C34.9521 30.7451 35.0759 30.2893 35.2407 29.7924C35.4058 28.9228 35.4882 28.012 35.4882 27.1008C35.4472 26.8939 35.612 26.6866 35.8185 26.6454H46.504C46.8343 26.6454 46.9991 26.7696 47.0405 26.9766L62.0994 69.63C62.2232 70.0854 62.0994 70.2923 61.6871 70.2923H53.064C52.7754 70.3339 52.4865 70.1269 52.4041 69.8369L49.0209 59.981ZM36.0661 51.5747H46.5454C46.2978 50.7051 45.9679 49.6697 45.5966 48.5931C45.2253 47.475 44.854 46.2742 44.4826 45.0319C44.0699 43.748 43.6986 42.5057 43.2859 41.2218C42.8736 39.9383 42.5023 38.7372 42.1719 37.5364C41.842 36.3771 41.5531 35.3002 41.2645 34.3063H41.1818C40.8104 36.0871 40.3567 37.8679 39.7793 39.6483C39.1604 41.6361 38.5415 43.7065 37.8813 45.7773C37.3484 47.7318 36.7429 49.6656 36.0661 51.5747ZM71.3 33.8921C69.9385 33.9336 68.6184 33.3951 67.6282 32.4428C66.6794 31.4074 66.1843 30.0409 66.2253 28.6331C66.1843 27.225 66.7204 25.9 67.7106 24.9473C68.7008 23.995 70.0213 23.498 71.3828 23.498C72.9918 23.498 74.2295 23.995 75.137 24.9473C76.0513 25.9513 76.5397 27.2735 76.4985 28.6331C76.5398 30.0409 76.0447 31.4074 75.0546 32.4428C74.1058 33.4367 72.7029 33.9752 71.3 33.8921ZM66.6794 69.8369V37.9506C66.6794 37.5364 66.8442 37.3706 67.2155 37.3706H75.3845C75.7558 37.3706 75.921 37.5779 75.921 37.9506V69.8369C75.921 70.2923 75.7558 70.4996 75.3845 70.4996H67.2983C66.8855 70.4996 66.6794 70.2512 66.6794 69.8369Z" fill="#FF9A00"/>
</svg>
