<svg width="101" height="101" viewBox="0 0 101 101" fill="none" xmlns="http://www.w3.org/2000/svg">
<path d="M100.497 18.4403V82.455C100.497 84.6968 99.6715 86.6871 98.0207 88.426C96.3699 90.1678 94.1786 91.3484 91.4471 91.9678L55.3105 100.193C54.8348 100.296 54.3277 100.372 53.7891 100.422C53.2435 100.475 52.7311 100.501 52.2519 100.501C50.8669 100.501 49.6078 100.356 48.4746 100.064C47.3519 99.7695 46.2047 99.3639 45.033 98.8472L21.3984 88.2469C20.531 87.8663 19.8472 87.358 19.3471 86.7218C18.8469 86.0829 18.5968 85.3676 18.5968 84.5759C18.5968 83.3703 19.1285 82.3453 20.1917 81.5008C21.255 80.6536 22.5473 80.2299 24.0687 80.2299H54.66V21.1821L31.6811 27.6948C29.8169 28.2143 28.32 29.1282 27.1903 30.4366C26.0641 31.7477 25.501 33.1783 25.501 34.7284V68.3879C25.501 69.7657 25.0673 71.0324 24.1999 72.188C23.3255 73.3436 22.1311 74.2478 20.6167 74.9006L9.74631 79.6091C8.74601 80.0202 7.74747 80.2258 6.75067 80.2258C5.01239 80.2258 3.53643 79.7438 2.32278 78.7799C1.10564 77.816 0.49707 76.6437 0.49707 75.2631V27.8448C0.49707 26.1225 1.07416 24.4697 2.22835 22.8863C3.37554 21.3001 4.90397 20.0765 6.81363 19.2154L45.6206 1.68559C46.488 1.3078 47.4218 1.01612 48.4221 0.810558C49.4189 0.602217 50.4157 0.498047 51.4125 0.498047C52.1505 0.498047 52.815 0.541104 53.4061 0.627218C53.9867 0.713332 54.6232 0.842503 55.3157 1.01473L91.4523 8.9275C92.7954 9.23307 94.0195 9.69003 95.1247 10.2984C96.2335 10.9012 97.19 11.6234 97.9945 12.4651C98.7989 13.3124 99.4162 14.243 99.8464 15.2569C100.284 16.2764 100.497 17.3375 100.497 18.4403ZM92.1658 82.455V18.4403C92.1658 17.682 91.886 17.0181 91.3264 16.4486C90.7563 15.8819 90.0166 15.493 89.1072 15.2819L71.3327 11.4068C69.9442 11.0984 68.5557 10.779 67.1672 10.4484C65.7786 10.1234 64.3901 9.82336 63.0016 9.54836V91.5511L89.1072 85.6051C90.0166 85.3995 90.7546 85.0107 91.3212 84.4384C91.8843 83.8717 92.1658 83.2092 92.1658 82.4508V82.455Z" fill="#BF3900"/>
</svg>
