<svg width="101" height="101" viewBox="0 0 101 101" fill="none" xmlns="http://www.w3.org/2000/svg">
<path d="M77.0635 0.498047H23.9358C10.9909 0.498047 0.49707 10.9917 0.49707 23.9363V77.0631C0.49707 90.0078 10.9909 100.501 23.9358 100.501H77.0635C90.0083 100.501 100.502 90.0078 100.502 77.0631V23.9363C100.502 10.9917 90.0083 0.498047 77.0635 0.498047Z" fill="#001E36"/>
<path d="M23.9358 0.998047H77.0635C89.7322 0.998047 100.002 11.2679 100.002 23.9363V77.0631C100.002 89.7316 89.7322 100.001 77.0635 100.001H23.9358C11.2671 100.001 0.99707 89.7316 0.99707 77.0631V23.9363C0.99707 11.2679 11.2671 0.998047 23.9358 0.998047Z" stroke="black" stroke-opacity="0.75"/>
<path d="M23.498 70.0513V26.222C23.498 25.9237 23.6206 25.7536 23.9068 25.7536C24.6012 25.7536 25.2551 25.7536 26.1947 25.7109C27.1753 25.6682 28.1969 25.6682 29.3001 25.6258C30.4032 25.5831 31.588 25.5831 32.8547 25.5404C34.1211 25.498 35.3469 25.498 36.5726 25.498C39.9231 25.498 42.7014 25.9237 44.9897 26.8182C47.0407 27.5444 48.911 28.7375 50.4646 30.311C51.7811 31.6881 52.7984 33.3441 53.4474 35.1668C54.0603 36.9557 54.387 38.7874 54.387 40.7041C54.387 44.3671 53.57 47.3911 51.9355 49.7766C50.301 52.1618 48.0131 53.9507 45.3574 54.973C42.5788 56.038 39.5144 56.4213 36.1643 56.4213C35.1837 56.4213 34.5298 56.4213 34.1211 56.3786C33.7128 56.3359 33.1405 56.3359 32.3644 56.3359V70.0086C32.4051 70.3068 32.2009 70.5624 31.9147 70.6051H23.9883C23.6616 70.6051 23.498 70.4346 23.498 70.0513ZM32.405 33.974V48.2856C32.9773 48.3283 33.5082 48.371 33.9985 48.371H36.1643C37.7578 48.371 39.3512 48.1155 40.8627 47.6044C42.1705 47.221 43.3142 46.4116 44.2133 45.3466C45.0713 44.282 45.48 42.8337 45.48 40.9597C45.5184 39.6286 45.1923 38.3136 44.54 37.1685C43.8455 36.0612 42.8649 35.2095 41.6802 34.7407C40.1683 34.1018 38.5338 33.8462 36.8587 33.8889C35.7966 33.8889 34.8566 33.8889 34.0805 33.9317C33.2631 33.8889 32.6912 33.9317 32.405 33.974ZM79.8826 45.6876C78.6569 45.006 77.3495 44.5376 75.9602 44.2393C74.4483 43.8987 72.9368 43.6854 71.384 43.6854C70.5669 43.6431 69.7089 43.7709 68.9325 43.9837C68.4015 44.1115 67.9519 44.4098 67.6661 44.8355C67.4616 45.1765 67.339 45.6022 67.339 45.9855C67.339 46.3689 67.5025 46.7522 67.7477 47.0932C68.1154 47.5616 68.6057 47.945 69.137 48.2433C70.0843 48.7547 71.0521 49.2237 72.0378 49.6489C74.2442 50.4156 76.3689 51.4801 78.3301 52.758C79.6785 53.6524 80.7816 54.8452 81.5577 56.2935C82.2116 57.6564 82.5383 59.1471 82.4977 60.6805C82.5383 62.6826 81.9664 64.6844 80.9042 66.3456C79.7645 68.0459 78.1743 69.3631 76.328 70.1363C74.3258 71.0308 71.8743 71.4996 68.9325 71.4996C67.0532 71.4996 65.2146 71.3291 63.376 70.9458C61.9349 70.6863 60.5334 70.228 59.2084 69.5829C58.9223 69.4124 58.7181 69.1141 58.7587 68.7735V61.3621C58.7587 61.2343 58.7997 61.0638 58.9223 60.9788C59.0448 60.8937 59.1674 60.936 59.29 61.0215C60.8835 62.001 62.5585 62.6826 64.3566 63.1083C65.9091 63.5344 67.5435 63.7472 69.1776 63.7472C70.7305 63.7472 71.8337 63.5344 72.5691 63.151C73.2226 62.8528 73.6723 62.1288 73.6723 61.3621C73.6723 60.7659 73.3452 60.2121 72.6917 59.6582C72.0378 59.1047 70.6895 58.4658 68.6873 57.6564C66.6335 56.902 64.6831 55.871 62.8857 54.5896C61.6053 53.6383 60.5445 52.4014 59.7803 50.969C59.1264 49.6061 58.7997 48.1155 58.8407 46.6244C58.8407 44.7931 59.331 43.0465 60.2296 41.4708C61.2512 39.7669 62.7631 38.404 64.5197 37.5519C66.4403 36.5296 68.8509 36.0612 71.7517 36.0612C73.4271 36.0612 75.1432 36.189 76.8183 36.4446C78.044 36.6151 79.2288 36.9557 80.332 37.4241C80.4955 37.4668 80.6591 37.6373 80.7407 37.8075C80.7816 37.978 80.8223 38.1485 80.8223 38.3186V45.2615C80.8223 45.4321 80.7407 45.6022 80.6181 45.6876C80.2504 45.7727 80.0462 45.7727 79.8826 45.6876Z" fill="#31A8FF"/>
</svg>
