<svg width="101" height="101" viewBox="0 0 101 101" fill="none" xmlns="http://www.w3.org/2000/svg">
<path d="M77.0635 0.498047H23.9358C10.9909 0.498047 0.49707 10.9917 0.49707 23.9363V77.0631C0.49707 90.0078 10.9909 100.501 23.9358 100.501H77.0635C90.0083 100.501 100.502 90.0078 100.502 77.0631V23.9363C100.502 10.9917 90.0083 0.498047 77.0635 0.498047Z" fill="#00005B"/>
<path d="M21.498 71.9138V29.2029C21.498 28.9128 21.624 28.7468 21.9179 28.7468C22.6312 28.7468 23.3029 28.7468 24.2681 28.7053C25.2754 28.664 26.3247 28.664 27.4579 28.6224C28.5911 28.5809 29.8081 28.5809 31.1093 28.5396C32.4101 28.498 33.6693 28.498 34.9284 28.498C38.37 28.498 41.2239 28.9128 43.5745 29.7836C45.6813 30.4905 47.6024 31.6519 49.1983 33.1837C50.5507 34.5243 51.5956 36.1364 52.2623 37.9109C52.8918 39.6525 53.2275 41.4357 53.2275 43.3017C53.2275 46.8677 52.3882 49.8121 50.7093 52.1342C49.0303 54.4562 46.6801 56.1978 43.9522 57.193C41.098 58.2298 37.9502 58.603 34.5089 58.603C33.5016 58.603 32.83 58.603 32.4101 58.5614C31.9907 58.5202 31.4029 58.5202 30.6057 58.5202V71.831C30.6474 72.121 30.4377 72.3699 30.1438 72.4114H22.0017C21.6661 72.4114 21.498 72.2454 21.498 71.8722V71.9138ZM30.6474 36.7913V50.7242C31.2352 50.7657 31.7806 50.8073 32.2842 50.8073H34.5089C36.1458 50.8073 37.7826 50.5585 39.3352 50.0609C40.6785 49.6877 41.8534 48.8997 42.7769 47.8629C43.6583 46.8265 44.0781 45.4165 44.0781 43.5921C44.1175 42.2962 43.7826 41.016 43.1125 39.9013C42.3992 38.8233 41.3919 37.9941 40.1749 37.5377C38.6219 36.9157 36.9429 36.6669 35.2223 36.7085C34.1312 36.7085 33.1656 36.7085 32.3684 36.7501C31.5288 36.7085 30.9413 36.7501 30.6474 36.7913ZM59.2712 39.2381H66.6161C67.0359 39.2381 67.3715 39.5281 67.4974 39.9013C67.6233 40.2333 67.7072 40.5649 67.7493 40.9381C67.8331 41.3529 67.9173 41.8089 67.959 42.2237C68.0011 42.6797 68.0432 43.1773 68.0432 43.7165C69.3033 42.2629 70.8261 41.0535 72.5339 40.1501C74.4646 39.0721 76.6889 38.5329 78.9132 38.5329C79.2071 38.4917 79.4589 38.6989 79.501 38.9893V47.2409C79.501 47.5729 79.2909 47.6973 78.8294 47.6973C77.3184 47.6557 75.7654 47.7801 74.2966 48.1117C73.0796 48.3605 71.9043 48.7337 70.7711 49.2313C69.9735 49.6045 69.2181 50.1021 68.6306 50.7657V71.9138C68.6306 72.3286 68.4626 72.4943 68.0849 72.4943H59.8169C59.4813 72.5358 59.1873 72.3286 59.1452 71.9966V48.8581C59.1452 47.8629 59.1453 46.8265 59.1035 45.7481C59.0614 44.6701 59.0614 43.5921 59.0193 42.5137C59.0193 41.5601 58.9355 40.6477 58.8517 39.6941C58.8096 39.4869 58.9355 39.2793 59.1452 39.2381C59.1452 39.1965 59.2295 39.1965 59.2712 39.2381Z" fill="#9999FF"/>
</svg>
