<svg width="101" height="101" viewBox="0 0 101 101" fill="none" xmlns="http://www.w3.org/2000/svg">
<path d="M50.4996 0.498047C22.9482 0.498047 0.49707 22.9488 0.49707 50.4997C0.49707 78.0507 22.9482 100.501 50.4996 100.501C78.051 100.501 100.502 78.0507 100.502 50.4997C100.502 22.9488 78.051 0.498047 50.4996 0.498047ZM5.54733 50.4997C5.54733 43.9995 6.9474 37.7993 9.44753 32.1991L30.8986 90.9511C15.8979 83.6509 5.54733 68.3003 5.54733 50.4997ZM50.4996 95.4513C46.0994 95.4513 41.8492 94.8013 37.799 93.6012L51.2997 54.3999L65.1004 92.2512C65.2004 92.4512 65.3004 92.7012 65.4004 92.8512C60.7502 94.5512 55.7499 95.4513 50.4996 95.4513ZM56.6999 29.399C59.4001 29.249 61.8502 28.949 61.8502 28.949C64.2503 28.649 64.0003 25.0989 61.5502 25.2489C61.5502 25.2489 54.2498 25.7989 49.5496 25.7989C45.1494 25.7989 37.699 25.2489 37.699 25.2489C35.2989 25.1489 34.9988 28.849 37.449 28.999C37.449 28.999 39.7491 29.299 42.1492 29.449L49.1496 48.6497L39.2991 78.1507L22.9482 29.399C25.6484 29.299 28.0985 28.999 28.0985 28.999C30.4986 28.699 30.2486 25.1489 27.7985 25.2989C27.7985 25.2989 20.4981 25.8489 15.7979 25.8489C14.9478 25.8489 13.9478 25.8489 12.8977 25.7989C20.9981 13.5985 34.7988 5.54822 50.4996 5.54822C62.2002 5.54822 72.8508 9.99837 80.8512 17.3486C80.6512 17.3486 80.4512 17.2986 80.2512 17.2986C75.8509 17.2986 72.7008 21.1487 72.7008 25.2989C72.7008 28.999 74.8509 32.1491 77.101 35.8492C78.8011 38.8493 80.8012 42.6995 80.8012 48.2497C80.8012 52.0998 79.3011 56.5499 77.401 62.8002L72.9008 77.8007L56.6999 29.399ZM89.9516 28.949C95.568 39.2275 96.9496 51.2926 93.8021 62.5746C90.6547 73.8567 83.2269 83.4642 73.1008 89.3511L86.8515 49.6497C89.4016 43.2495 90.2517 38.0993 90.2517 33.5492C90.2517 31.8991 90.1517 30.3491 89.9516 28.949Z" fill="white"/>
</svg>
